<svg xmlns="http://www.w3.org/2000/svg" version="1.1" xmlns:xlink="http://www.w3.org/1999/xlink" xmlns:svgjs="http://svgjs.dev/svgjs" width="2000" height="2559" viewBox="0 0 2000 2559"><g transform="matrix(1,0,0,1,-1.0047430288746,1.0360341922016687)"><svg viewBox="0 0 193 247" data-background-color="#fffbf4" preserveAspectRatio="xMidYMid meet" height="2559" width="2000" xmlns="http://www.w3.org/2000/svg" xmlns:xlink="http://www.w3.org/1999/xlink"><g id="tight-bounds" transform="matrix(1,0,0,1,0.09695795126975781,-0.10000017408120243)"><svg viewBox="0 0 192.80607970401365 247.2" height="247.2" width="192.80607970401365"><g><svg viewBox="0 0 395.52 507.1030132975867" height="247.2" width="192.80607970401365"><g transform="matrix(1,0,0,1,0,251.5838350661878)"><svg viewBox="0 0 395.52 255.51917823139888" height="255.51917823139888" width="395.52"><g id="textblocktransform"><svg viewBox="0 0 395.52 255.51917823139888" height="255.51917823139888" width="395.52" id="textblock"><g><svg viewBox="0 0 395.52 189.59252538930264" height="189.59252538930264" width="395.52"><g transform="matrix(1,0,0,1,0,0)"><svg width="395.52" viewBox="1.9000000953674316 -35 73.8499984741211 35.400001525878906" height="189.59252538930264" data-palette-color="#3d4950"><path d="M4.55-33.95L1.9-34.25 1.95-35 8.55-35 20.5-9.65 32.25-35 38.85-35Q38.85-34.9 38.9-34.65 38.95-34.4 38.9-34.25L38.9-34.25 36.25-33.95Q35.75-33.9 35.65-33.3L35.65-33.3 35.65-0.95 39.35-0.75Q39.35-0.7 39.3 0L39.3 0 29.25 0.05 29.3-0.65 31.9-1Q32.4-1.05 32.5-1.6L32.5-1.6 32.5-33.2 21.1-8.55 20.1-6.55 18.95-6.55 6.3-33.25 6.3-1.05 12-0.75Q12-0.7 11.95 0L11.95 0 1.9 0.05 1.95-0.65 4.55-1Q5.05-1.05 5.15-1.65L5.15-1.65 5.15-33.3Q5.05-33.9 4.55-33.95L4.55-33.95ZM43.75-23.95L41.15-24.2 41.1-24.95 47.85-25 47.85-7.6Q47.85-5.65 48.4-4.23 48.95-2.8 49.62-2.15 50.3-1.5 51.2-1.15L51.2-1.15Q52.6-0.65 53.55-0.75L53.55-0.75Q56.6-0.8 60.5-3.9L60.5-3.9 60.5-23.25Q60.3-23.85 59.65-23.95L59.65-23.95 57.05-24.2Q57-24.5 57-24.95L57-24.95 63.75-25 63.75-2.3Q63.85-1.05 64.55-1.05L64.55-1.05 67.55-0.9 67.5-0.15Q65.1 0.25 62.5 0.25L62.5 0.25Q61.9 0.2 61.2-0.43 60.5-1.05 60.5-2L60.5-2 60.5-2.9Q55.95 0.15 51.9 0.15L51.9 0.15Q50.2 0.15 47.9-0.7L47.9-0.7Q46.4-1.25 45.5-2.78 44.6-4.3 44.6-6.6L44.6-6.6 44.6-23.2Q44.6-23.45 44.32-23.68 44.05-23.9 43.75-23.95L43.75-23.95ZM72.25-1.45L72.25-1.45Q72.25-2.4 72.72-2.95 73.2-3.5 74-3.5L74-3.5Q75.75-3.5 75.75-1.45L75.75-1.45Q75.75-0.6 75.25-0.1 74.75 0.4 74 0.4L74 0.4Q72.25 0.4 72.25-1.45Z" opacity="1" transform="matrix(1,0,0,1,0,0)" fill="#ffffff" class="undefined-text-0" data-fill-palette-color="primary" id="text-0"></path></svg></g></svg></g><g transform="matrix(1,0,0,1,94.9248,234.35077041310765)"><svg viewBox="0 0 300.5952 21.168407818291254" height="21.168407818291254" width="300.5952"><g transform="matrix(1,0,0,1,0,0)"><svg width="300.5952" viewBox="2 -40.599998474121094 770.5999755859375 54.269996643066406" height="21.168407818291254" data-palette-color="#3d4950"><path d="M30.03-28.27L30.03-28.27Q30.03-26.37 29.36-24.98 28.69-23.58 27.69-22.58L27.69-22.58Q25.9-20.85 23.24-19.85L23.24-19.85Q27.54-19.02 29.54-17.29L29.54-17.29Q32.28-14.89 32.28-10.16L32.28-10.16Q32.28-5.91 29-3.1L29-3.1Q25.42 0 18.95 0L18.95 0 2 0 2-2.08 5.71-2.64 5.71-34.18 2-34.74 2-36.82 18.29-36.82Q24.05-36.82 27.12-34.47L27.12-34.47Q30.03-32.28 30.03-28.27ZM18.41-18.04L10.3-18.04 10.3-2.93 17.21-2.93Q25.32-2.93 27.03-7.35L27.03-7.35Q27.56-8.74 27.56-10.39 27.56-12.04 26.99-13.42 26.42-14.79 25.27-15.82L25.27-15.82Q22.78-18.04 18.41-18.04L18.41-18.04ZM17.72-33.86L10.3-33.86 10.3-20.7 17.26-20.7Q22.44-20.7 24.49-24.22L24.49-24.22Q25.27-25.54 25.27-27.59L25.27-27.59Q25.27-30.86 23.46-32.36 21.66-33.86 17.72-33.86L17.72-33.86ZM37.47-2.59L37.47-20.36 34.35-20.92 34.35-22.95 41.43-24.73 41.43-18.51Q47.04-24.73 49.88-24.73L49.88-24.73Q52.19-24.73 54.15-22.88L54.15-22.88 52.88-18.92 51.73-18.92Q51.73-20.12 49.9-20.7L49.9-20.7Q49.39-20.85 48.87-20.85L48.87-20.85Q46.29-20.85 41.43-15.65L41.43-15.65 41.43-2.59 46.26-2.03 46.26 0 34.35 0 34.35-2.03 37.47-2.59ZM75.68-5.59L75.68-5.59 77.07-4Q73.19-0.51 69.55 0.37L69.55 0.37Q68.75 0.56 67.96 0.56L67.96 0.56Q62.59 0.56 59.22-2.83L59.22-2.83Q55.88-6.15 55.88-11.5L55.88-11.5Q55.88-16.82 59.03-20.61L59.03-20.61Q62.5-24.73 68.04-24.73L68.04-24.73Q71.87-24.73 74.51-21.97L74.51-21.97Q77.31-19.09 77.31-14.48L77.31-14.48 76.17-13.45 60.25-12.3Q60.3-7.86 63.13-5.2L63.13-5.2Q65.67-2.86 69.04-2.86 72.41-2.86 75.68-5.59ZM60.42-14.6L60.42-14.6 72.97-15.75Q72.8-19.8 69.84-21.31L69.84-21.31Q68.79-21.85 67.16-21.85 65.52-21.85 64.24-21.04 62.96-20.24 62.13-19.09L62.13-19.09Q60.54-16.92 60.42-14.6ZM103.61-3.56L104.05-1.27Q100.48 0.56 98.89 0.56L98.89 0.56Q95.33 0.56 95.33-2.47L95.33-2.47 95.33-3.22Q94.99-2.71 93.46-1.73 91.94-0.76 91.08-0.37L91.08-0.37Q89.06 0.56 88.01 0.56 86.96 0.56 86.27 0.48 85.59 0.39 84.86 0.15 84.12-0.1 83.42-0.54 82.71-0.98 82.15-1.68L82.15-1.68Q80.9-3.25 80.9-5.76L80.9-5.76Q80.9-9.23 83.37-10.6L83.37-10.6Q84.93-11.5 86.67-11.72 88.42-11.94 89.86-12.06L89.86-12.06Q92.6-12.3 95.33-12.35L95.33-12.35 95.33-17.48Q95.33-19.6 94.79-20.31L94.79-20.31Q93.89-21.56 91.98-21.56L91.98-21.56Q87.74-21.56 83.64-18.8L83.64-18.8 82.22-20.92Q87.93-24.73 92.45-24.73L92.45-24.73Q96.38-24.73 98.01-22.56L98.01-22.56Q99.28-20.87 99.28-17.77L99.28-17.77 99.28-4.93Q99.28-3.13 99.97-2.88L99.97-2.88Q100.21-2.81 100.6-2.81L100.6-2.81Q101.58-2.81 103.61-3.56L103.61-3.56ZM95.33-5.47L95.33-10.3Q88.4-10.03 86.44-8.91L86.44-8.91Q84.95-8.06 84.95-6.15L84.95-6.15Q84.95-3.39 87.08-2.76L87.08-2.76Q87.66-2.59 88.51-2.59 89.35-2.59 90.47-2.93 91.59-3.27 92.55-3.76L92.55-3.76Q94.35-4.64 95.33-5.47L95.33-5.47ZM112.86-40.6L112.86-2.59 115.96-2.03 115.96 0 105.7 0 105.7-2.03 108.88-2.59 108.88-36.21 105.7-36.82 105.7-38.79 112.86-40.6ZM113.05-12.99L123.96-21.61 121.79-22.12 121.79-24.15 131.58-24.15 131.58-22.12 127.77-21.56 117.45-13.62 127.7-3.22 129.29-2.42 131.92-2.03 131.92 0 125.06 0 113.05-12.99ZM141.66-24.73L141.66-2.59 144.79-2.03 144.79 0 134.53 0 134.53-2.03 137.71-2.59 137.71-20.36 134.53-20.92 134.53-22.95 141.66-24.73ZM137.57-32.19Q137.17-32.62 136.93-33.15 136.68-33.69 136.68-34.22 136.68-34.74 136.93-35.27 137.17-35.79 137.56-36.23L137.56-36.23Q138.46-37.21 139.21-37.21 139.95-37.21 140.48-36.94 141-36.67 141.42-36.23L141.42-36.23Q142.32-35.23 142.32-34.46 142.32-33.69 142.07-33.15 141.81-32.62 141.42-32.18L141.42-32.18Q140.49-31.23 139.72-31.23 138.95-31.23 138.46-31.49 137.98-31.76 137.57-32.19ZM162.24-21.56L162.24-21.56Q158.51-21.56 154.75-18.97L154.75-18.97 154.75-2.59 157.85-2.03 157.85 0 147.59 0 147.59-2.03 150.77-2.59 150.77-20.36 147.59-20.92 147.59-22.95 154.33-24.73 154.33-21.56Q159.26-24.73 163.49-24.73L163.49-24.73Q168.56-24.73 170.1-20.51L170.1-20.51Q170.61-19.09 170.61-17.19L170.61-17.19 170.61-2.59 173.72-2.03 173.72 0 163.49 0 163.49-2.03 166.64-2.59 166.64-16.72Q166.64-21.56 162.24-21.56ZM200.81-20.58L197.64-20.58Q198.79-18.73 198.79-15.97L198.79-15.97Q198.79-12.08 194.88-9.08L194.88-9.08Q193.17-7.76 190.88-6.88L190.88-6.88 187.14-5.47Q184.46-4.47 184.1-4.09 183.75-3.71 183.75-3.48 183.75-3.25 183.99-3.03 184.24-2.81 184.8-2.61L184.8-2.61Q186.14-2.15 188.56-2.15 190.97-2.15 193.07-1.89 195.17-1.64 196.78-0.93L196.78-0.93Q200.3 0.66 200.3 4.49L200.3 4.49Q200.3 7.08 198.27 9.3L198.27 9.3Q195.47 12.35 190.31 13.38L190.31 13.38Q188.78 13.67 186.92 13.67 185.07 13.67 183.14 13.28 181.21 12.89 179.77 12.06L179.77 12.06Q176.72 10.33 176.72 6.86L176.72 6.86Q176.72 4.17 178.99 2.73L178.99 2.73 180.57 1.78Q181.23 1.44 182.05 1.27 182.87 1.1 183.7 0.88L183.7 0.88Q181.06 0.37 180.06-1.22L180.06-1.22Q179.72-1.78 179.72-2.4 179.72-3.03 179.96-3.47 180.21-3.91 180.84-4.35 181.48-4.79 182.6-5.32L182.6-5.32 185.5-6.69Q183.21-7.13 181.21-8.81L181.21-8.81Q178.45-11.13 178.45-15.36L178.45-15.36Q178.45-19.41 182.01-22.22L182.01-22.22Q185.16-24.73 188.95-24.73 192.73-24.73 195.49-22.95L195.49-22.95Q197.25-24.17 201.3-24.68L201.3-24.68 201.96-23.93 200.81-20.58ZM181.13 5.46Q180.99 6.13 180.99 7.15 180.99 8.18 181.75 9.05 182.5 9.91 183.67 10.38L183.67 10.38Q185.58 11.13 187.98 11.13 190.39 11.13 191.66 10.74 192.93 10.35 193.88 9.62L193.88 9.62Q196.03 8.01 196.03 5.42L196.03 5.42Q196.03 2.17 191.44 1.76L191.44 1.76Q190.09 1.64 188.63 1.64L188.63 1.64Q184.43 1.64 181.96 4.1L181.96 4.1Q181.28 4.79 181.13 5.46ZM182.99-18.95L182.99-18.95Q182.48-17.75 182.48-16.03 182.48-14.31 182.99-13.04 183.5-11.77 184.38-10.89L184.38-10.89Q186.16-9.11 188.97-9.11L188.97-9.11Q192.63-9.11 194.2-12.18L194.2-12.18Q194.78-13.33 194.78-15.03 194.78-16.72 194.27-18.04 193.76-19.36 192.88-20.29L192.88-20.29Q191.05-22.22 188.29-22.22L188.29-22.22Q184.38-22.22 182.99-18.95ZM242.75-5.59L242.75-5.59 244.14-4Q240.26-0.51 236.62 0.37L236.62 0.37Q235.82 0.56 235.04 0.56L235.04 0.56Q229.69 0.56 226.39-2.83L226.39-2.83Q223.2-6.13 223.2-11.5L223.2-11.5Q223.2-16.87 226.39-20.61L226.39-20.61Q229.96-24.73 235.96-24.73L235.96-24.73Q239.97-24.73 243.04-23.41L243.04-23.41 242.46-18.51 240.92-18.51Q240.92-20.97 237.97-21.63L237.97-21.63Q237.04-21.85 235.38-21.85 233.72-21.85 232.12-21.08 230.52-20.31 229.49-19.04L229.49-19.04Q227.47-16.53 227.47-12.89L227.47-12.89Q227.47-8.42 229.67-5.74L229.67-5.74Q232.03-2.86 235.76-2.86 239.48-2.86 242.75-5.59ZM248.39-11.87L248.39-11.87Q248.39-14.67 249.35-17.09 250.32-19.51 251.98-21.19L251.98-21.19Q255.39-24.73 260.4-24.73L260.4-24.73Q266.21-24.73 269.48-21.29L269.48-21.29Q272.58-17.99 272.58-12.67L272.58-12.67Q272.58-6.74 269.07-3.03L269.07-3.03Q265.65 0.56 260.62 0.56L260.62 0.56Q254.88 0.56 251.54-2.98L251.54-2.98Q248.39-6.3 248.39-11.87ZM254.64-19.15Q253.66-17.9 253.16-16.21 252.66-14.53 252.66-12.56 252.66-10.6 253.11-8.73 253.56-6.86 254.52-5.42L254.52-5.42Q256.62-2.29 260.57-2.29L260.57-2.29Q264.28-2.29 266.33-4.74L266.33-4.74Q268.36-7.13 268.36-11.21L268.36-11.21Q268.36-18.43 264.23-20.92L264.23-20.92Q262.69-21.85 260.6-21.85 258.5-21.85 257.06-21.13 255.61-20.41 254.64-19.15ZM289.72-24.73L289.72-24.73Q292.77-24.73 295.8-23.54L295.8-23.54 295.8-36.06 292.06-36.82 292.06-38.79 299.75-40.6 299.75-3.91Q299.75-2.81 300.99-2.81 302.22-2.81 304.07-3.56L304.07-3.56 304.59-1.27Q301.1 0.56 299.36 0.56L299.36 0.56Q296.85 0.56 296.07-1.07L296.07-1.07Q295.8-1.66 295.8-2.47L295.8-2.47Q293.97-0.85 291.89-0.15 289.82 0.56 287.58 0.56 285.35 0.56 283.27-0.29 281.2-1.15 279.81-2.73L279.81-2.73Q277.1-5.83 277.1-11.5L277.1-11.5Q277.1-16.92 280.29-20.61L280.29-20.61Q283.83-24.73 289.72-24.73ZM289.72-2.86L289.72-2.86Q292.18-2.86 295.8-5.18L295.8-5.18 295.8-19.04Q293.7-21.85 289.11-21.85L289.11-21.85Q285.57-21.85 283.37-18.99L283.37-18.99Q281.32-16.28 281.32-12.01L281.32-12.01Q281.32-8.13 283.27-5.64L283.27-5.64Q285.42-2.86 289.72-2.86ZM325.8-5.59L325.8-5.59 327.19-4Q323.31-0.51 319.67 0.37L319.67 0.37Q318.87 0.56 318.09 0.56L318.09 0.56Q312.71 0.56 309.35-2.83L309.35-2.83Q306-6.15 306-11.5L306-11.5Q306-16.82 309.15-20.61L309.15-20.61Q312.62-24.73 318.16-24.73L318.16-24.73Q321.99-24.73 324.63-21.97L324.63-21.97Q327.44-19.09 327.44-14.48L327.44-14.48 326.29-13.45 310.37-12.3Q310.42-7.86 313.25-5.2L313.25-5.2Q315.79-2.86 319.16-2.86 322.53-2.86 325.8-5.59ZM310.54-14.6L310.54-14.6 323.09-15.75Q322.92-19.8 319.97-21.31L319.97-21.31Q318.92-21.85 317.28-21.85 315.64-21.85 314.36-21.04 313.08-20.24 312.25-19.09L312.25-19.09Q310.66-16.92 310.54-14.6ZM335.78 2.22L335.78 2.22Q335.98 1.56 335.98 0.85 335.98 0.15 335.54-0.26 335.1-0.66 334.56-0.98 334.03-1.29 333.59-1.62 333.15-1.95 333.15-2.42 333.15-2.88 333.44-3.43 333.73-3.98 334.17-4.49L334.17-4.49Q335.27-5.69 336.37-5.69L336.37-5.69Q337.32-5.69 338.08-4.91L338.08-4.91Q339.42-3.52 339.42-2.28 339.42-1.05 339.12 0.2 338.81 1.44 338.32 2.44L338.32 2.44Q337.47 4.25 335.92 5.74 334.37 7.23 332.41 8.11L332.41 8.11 331.66 6.79Q335 5.08 335.78 2.22ZM361-11.87L361-11.87Q361-14.67 361.96-17.09 362.93-19.51 364.59-21.19L364.59-21.19Q368-24.73 373.01-24.73L373.01-24.73Q378.82-24.73 382.09-21.29L382.09-21.29Q385.19-17.99 385.19-12.67L385.19-12.67Q385.19-6.74 381.68-3.03L381.68-3.03Q378.26 0.56 373.23 0.56L373.23 0.56Q367.49 0.56 364.15-2.98L364.15-2.98Q361-6.3 361-11.87ZM367.25-19.15Q366.27-17.9 365.77-16.21 365.27-14.53 365.27-12.56 365.27-10.6 365.72-8.73 366.17-6.86 367.13-5.42L367.13-5.42Q369.23-2.29 373.18-2.29L373.18-2.29Q376.89-2.29 378.94-4.74L378.94-4.74Q380.97-7.13 380.97-11.21L380.97-11.21Q380.97-18.43 376.84-20.92L376.84-20.92Q375.3-21.85 373.2-21.85 371.11-21.85 369.66-21.13 368.22-20.41 367.25-19.15ZM404.09-21.56L404.09-21.56Q400.35-21.56 396.59-18.97L396.59-18.97 396.59-2.59 399.69-2.03 399.69 0 389.44 0 389.44-2.03 392.61-2.59 392.61-20.36 389.44-20.92 389.44-22.95 396.18-24.73 396.18-21.56Q401.11-24.73 405.33-24.73L405.33-24.73Q410.41-24.73 411.95-20.51L411.95-20.51Q412.46-19.09 412.46-17.19L412.46-17.19 412.46-2.59 415.56-2.03 415.56 0 405.33 0 405.33-2.03 408.48-2.59 408.48-16.72Q408.48-21.56 404.09-21.56ZM438.41-5.59L438.41-5.59 439.8-4Q435.92-0.51 432.28 0.37L432.28 0.37Q431.48 0.56 430.69 0.56L430.69 0.56Q425.32 0.56 421.95-2.83L421.95-2.83Q418.61-6.15 418.61-11.5L418.61-11.5Q418.61-16.82 421.76-20.61L421.76-20.61Q425.23-24.73 430.77-24.73L430.77-24.73Q434.6-24.73 437.24-21.97L437.24-21.97Q440.05-19.09 440.05-14.48L440.05-14.48 438.9-13.45 422.98-12.3Q423.03-7.86 425.86-5.2L425.86-5.2Q428.4-2.86 431.77-2.86 435.14-2.86 438.41-5.59ZM423.15-14.6L423.15-14.6 435.7-15.75Q435.53-19.8 432.57-21.31L432.57-21.31Q431.52-21.85 429.89-21.85 428.25-21.85 426.97-21.04 425.69-20.24 424.86-19.09L424.86-19.09Q423.27-16.92 423.15-14.6ZM462.77-3.17L462.77-36.21 459.6-36.82 459.6-38.79 466.75-40.6 466.75-21.56Q469.14-23.24 471.35-23.99 473.56-24.73 475.55-24.73 477.54-24.73 479.44-23.82 481.35-22.9 482.67-21.29L482.67-21.29Q485.43-17.92 485.43-12.67L485.43-12.67Q485.43-7.23 482.18-3.52L482.18-3.52Q478.66 0.56 472.66 0.56L472.66 0.56Q468.8 0.56 465.41-1.29L465.41-1.29Q463.89-2.1 462.77-3.17L462.77-3.17ZM473.81-21.56L473.81-21.56Q470.51-21.56 466.75-19.04L466.75-19.04 466.75-5.1Q468.85-2.29 473.41-2.29L473.41-2.29Q476.93-2.29 479.13-4.98L479.13-4.98Q481.18-7.47 481.18-11.21L481.18-11.21Q481.18-18.09 477.15-20.65L477.15-20.65Q475.76-21.56 473.81-21.56ZM514.84-3.32L515.36-1.03Q512.69 0.56 511.11 0.56L511.11 0.56Q509.59 0.56 508.86-0.05L508.86-0.05Q507.54-1.07 507.54-2.47L507.54-2.47 507.54-2.81Q505.44-1.03 503.2-0.23 500.95 0.56 499.27 0.56L499.27 0.56Q495.85 0.56 493.91-1.31 491.97-3.17 491.97-6.96L491.97-6.96 491.97-20.36 489.06-20.85 489.06-23 495.92-24.73 495.92-6.96Q495.92-4.76 497.44-3.56L497.44-3.56Q498.68-2.59 500.37-2.59L500.37-2.59Q503.12-2.59 505.54-4.05L505.54-4.05Q506.64-4.69 507.54-5.54L507.54-5.54 507.54-20.36 503.86-20.85 503.86-22.88 511.5-24.73 511.5-4.13Q511.5-2.81 512.82-2.81L512.82-2.81Q513.74-2.81 514.84-3.32L514.84-3.32ZM542.75-20.58L539.57-20.58Q540.72-18.73 540.72-15.97L540.72-15.97Q540.72-12.08 536.81-9.08L536.81-9.08Q535.1-7.76 532.81-6.88L532.81-6.88 529.07-5.47Q526.39-4.47 526.03-4.09 525.68-3.71 525.68-3.48 525.68-3.25 525.92-3.03 526.17-2.81 526.73-2.61L526.73-2.61Q528.07-2.15 530.49-2.15 532.91-2.15 535.01-1.89 537.11-1.64 538.72-0.93L538.72-0.93Q542.23 0.66 542.23 4.49L542.23 4.49Q542.23 7.08 540.21 9.3L540.21 9.3Q537.4 12.35 532.25 13.38L532.25 13.38Q530.71 13.67 528.85 13.67 527 13.67 525.07 13.28 523.14 12.89 521.7 12.06L521.7 12.06Q518.65 10.33 518.65 6.86L518.65 6.86Q518.65 4.17 520.92 2.73L520.92 2.73 522.51 1.78Q523.17 1.44 523.98 1.27 524.8 1.1 525.63 0.88L525.63 0.88Q522.99 0.37 521.99-1.22L521.99-1.22Q521.65-1.78 521.65-2.4 521.65-3.03 521.9-3.47 522.14-3.91 522.77-4.35 523.41-4.79 524.53-5.32L524.53-5.32 527.44-6.69Q525.14-7.13 523.14-8.81L523.14-8.81Q520.38-11.13 520.38-15.36L520.38-15.36Q520.38-19.41 523.95-22.22L523.95-22.22Q527.1-24.73 530.88-24.73 534.66-24.73 537.42-22.95L537.42-22.95Q539.18-24.17 543.23-24.68L543.23-24.68 543.89-23.93 542.75-20.58ZM523.07 5.46Q522.92 6.13 522.92 7.15 522.92 8.18 523.68 9.05 524.43 9.91 525.61 10.38L525.61 10.38Q527.51 11.13 529.92 11.13 532.32 11.13 533.59 10.74 534.86 10.35 535.81 9.62L535.81 9.62Q537.96 8.01 537.96 5.42L537.96 5.42Q537.96 2.17 533.37 1.76L533.37 1.76Q532.03 1.64 530.56 1.64L530.56 1.64Q526.36 1.64 523.9 4.1L523.9 4.1Q523.21 4.79 523.07 5.46ZM524.92-18.95L524.92-18.95Q524.41-17.75 524.41-16.03 524.41-14.31 524.92-13.04 525.44-11.77 526.31-10.89L526.31-10.89Q528.1-9.11 530.9-9.11L530.9-9.11Q534.57-9.11 536.13-12.18L536.13-12.18Q536.72-13.33 536.72-15.03 536.72-16.72 536.2-18.04 535.69-19.36 534.81-20.29L534.81-20.29Q532.98-22.22 530.22-22.22L530.22-22.22Q526.31-22.22 524.92-18.95ZM587.34-3.56L587.78-1.27Q584.22 0.56 582.63 0.56L582.63 0.56Q579.07 0.56 579.07-2.47L579.07-2.47 579.07-3.22Q578.73-2.71 577.2-1.73 575.67-0.76 574.82-0.37L574.82-0.37Q572.79 0.56 571.74 0.56 570.69 0.56 570.01 0.48 569.33 0.39 568.59 0.15 567.86-0.1 567.15-0.54 566.45-0.98 565.88-1.68L565.88-1.68Q564.64-3.25 564.64-5.76L564.64-5.76Q564.64-9.23 567.11-10.6L567.11-10.6Q568.67-11.5 570.41-11.72 572.16-11.94 573.6-12.06L573.6-12.06Q576.33-12.3 579.07-12.35L579.07-12.35 579.07-17.48Q579.07-19.6 578.53-20.31L578.53-20.31Q577.63-21.56 575.72-21.56L575.72-21.56Q571.48-21.56 567.37-18.8L567.37-18.8 565.96-20.92Q571.67-24.73 576.19-24.73L576.19-24.73Q580.12-24.73 581.75-22.56L581.75-22.56Q583.02-20.87 583.02-17.77L583.02-17.77 583.02-4.93Q583.02-3.13 583.71-2.88L583.71-2.88Q583.95-2.81 584.34-2.81L584.34-2.81Q585.32-2.81 587.34-3.56L587.34-3.56ZM579.07-5.47L579.07-10.3Q572.13-10.03 570.18-8.91L570.18-8.91Q568.69-8.06 568.69-6.15L568.69-6.15Q568.69-3.39 570.82-2.76L570.82-2.76Q571.4-2.59 572.24-2.59 573.09-2.59 574.21-2.93 575.33-3.27 576.29-3.76L576.29-3.76Q578.09-4.64 579.07-5.47L579.07-5.47ZM596.11-21.29L596.11-7.47Q596.11-2.59 600.06-2.59L600.06-2.59Q602.14-2.59 604.09-4.3L604.09-4.3 605.41-2.69Q603.33-0.98 601.58-0.21 599.82 0.56 598.48 0.56 597.13 0.56 595.88-0.02 594.62-0.61 593.79-1.71L593.79-1.71Q592.15-3.83 592.15-7.74L592.15-7.74 592.15-21.29 589.05-21.29 589.05-23.41 592.15-24.15 592.15-27.42 595.03-30.3 596.11-30.3 596.11-24.15 604.16-24.15 604.16-21.29 596.11-21.29ZM645.81-3.56L646.25-1.27Q642.68 0.56 641.1 0.56L641.1 0.56Q637.53 0.56 637.53-2.47L637.53-2.47 637.53-3.22Q637.19-2.71 635.66-1.73 634.14-0.76 633.28-0.37L633.28-0.37Q631.26 0.56 630.21 0.56 629.16 0.56 628.48 0.48 627.79 0.39 627.06 0.15 626.33-0.1 625.62-0.54 624.91-0.98 624.35-1.68L624.35-1.68Q623.1-3.25 623.1-5.76L623.1-5.76Q623.1-9.23 625.57-10.6L625.57-10.6Q627.13-11.5 628.88-11.72 630.62-11.94 632.06-12.06L632.06-12.06Q634.8-12.3 637.53-12.35L637.53-12.35 637.53-17.48Q637.53-19.6 637-20.31L637-20.31Q636.09-21.56 634.19-21.56L634.19-21.56Q629.94-21.56 625.84-18.8L625.84-18.8 624.42-20.92Q630.14-24.73 634.65-24.73L634.65-24.73Q638.58-24.73 640.22-22.56L640.22-22.56Q641.49-20.87 641.49-17.77L641.49-17.77 641.49-4.93Q641.49-3.13 642.17-2.88L642.17-2.88Q642.42-2.81 642.81-2.81L642.81-2.81Q643.78-2.81 645.81-3.56L645.81-3.56ZM637.53-5.47L637.53-10.3Q630.6-10.03 628.65-8.91L628.65-8.91Q627.16-8.06 627.16-6.15L627.16-6.15Q627.16-3.39 629.28-2.76L629.28-2.76Q629.87-2.59 630.71-2.59 631.55-2.59 632.67-2.93 633.8-3.27 634.75-3.76L634.75-3.76Q636.56-4.64 637.53-5.47L637.53-5.47ZM671.32-21.29L671.32-7.47Q671.32-2.59 675.27-2.59L675.27-2.59Q677.35-2.59 679.3-4.3L679.3-4.3 680.62-2.69Q678.54-0.98 676.79-0.21 675.03 0.56 673.68 0.56 672.34 0.56 671.08-0.02 669.83-0.61 669-1.71L669-1.71Q667.36-3.83 667.36-7.74L667.36-7.74 667.36-21.29 664.26-21.29 664.26-23.41 667.36-24.15 667.36-27.42 670.24-30.3 671.32-30.3 671.32-24.15 679.37-24.15 679.37-21.29 671.32-21.29ZM688.18-24.73L688.18-2.59 691.31-2.03 691.31 0 681.06 0 681.06-2.03 684.23-2.59 684.23-20.36 681.06-20.92 681.06-22.95 688.18-24.73ZM684.09-32.19Q683.69-32.62 683.45-33.15 683.2-33.69 683.2-34.22 683.2-34.74 683.45-35.27 683.69-35.79 684.08-36.23L684.08-36.23Q684.99-37.21 685.73-37.21 686.48-37.21 687-36.94 687.53-36.67 687.94-36.23L687.94-36.23Q688.84-35.23 688.84-34.46 688.84-33.69 688.59-33.15 688.33-32.62 687.94-32.18L687.94-32.18Q687.01-31.23 686.24-31.23 685.47-31.23 684.99-31.49 684.5-31.76 684.09-32.19ZM709.64-21.56L709.64-21.56Q705.37-21.56 701.71-18.97L701.71-18.97 701.71-2.59 704.81-2.03 704.81 0 694.6 0 694.6-2.03 697.75-2.59 697.75-20.36 694.6-20.92 694.6-22.95 701.71-24.73 701.71-21.56Q706.3-24.73 710.35-24.73L710.35-24.73Q715.43-24.73 716.94-21.51L716.94-21.51Q719.43-23.24 721.8-23.99 724.17-24.73 725.83-24.73L725.83-24.73Q729.54-24.73 731.36-22.88 733.18-21.02 733.18-17.19L733.18-17.19 733.18-2.59 736.25-2.03 736.25 0 726.1 0 726.1-2.03 729.2-2.59 729.2-17.19Q729.2-19.38 727.9-20.56L727.9-20.56Q726.8-21.56 725.17-21.56L725.17-21.56Q720.97-21.56 717.48-19.04L717.48-19.04Q717.6-17.82 717.6-17.19L717.6-17.19 717.6-2.59 720.41-2.03 720.41 0 710.74 0 710.74-2.03 713.6-2.59 713.6-17.19Q713.6-19.38 712.38-20.56L712.38-20.56Q711.33-21.56 709.64-21.56ZM759.74-5.59L759.74-5.59 761.13-4Q757.25-0.51 753.61 0.37L753.61 0.37Q752.8 0.56 752.02 0.56L752.02 0.56Q746.65 0.56 743.28-2.83L743.28-2.83Q739.94-6.15 739.94-11.5L739.94-11.5Q739.94-16.82 743.09-20.61L743.09-20.61Q746.55-24.73 752.1-24.73L752.1-24.73Q755.93-24.73 758.57-21.97L758.57-21.97Q761.37-19.09 761.37-14.48L761.37-14.48 760.23-13.45 744.31-12.3Q744.36-7.86 747.19-5.2L747.19-5.2Q749.73-2.86 753.1-2.86 756.47-2.86 759.74-5.59ZM744.48-14.6L744.48-14.6 757.03-15.75Q756.86-19.8 753.9-21.31L753.9-21.31Q752.85-21.85 751.22-21.85 749.58-21.85 748.3-21.04 747.02-20.24 746.19-19.09L746.19-19.09Q744.6-16.92 744.48-14.6ZM767.82-0.18Q767.01-0.93 766.67-1.48 766.33-2.03 766.33-2.49 766.33-2.95 766.63-3.5 766.94-4.05 767.4-4.54L767.4-4.54Q768.5-5.69 769.45-5.69L769.45-5.69Q770.45-5.69 771.21-4.88L771.21-4.88Q772.6-3.47 772.6-2.51L772.6-2.51Q772.6-1.61 771.82-0.83L771.82-0.83Q770.43 0.56 769.45 0.56L769.45 0.56Q768.62 0.56 767.82-0.18Z" opacity="1" transform="matrix(1,0,0,1,0,0)" fill="#ffffff" class="undefined-text-1" data-fill-palette-color="secondary" id="text-1"></path></svg></g></svg></g></svg></g></svg></g><g transform="matrix(1,0,0,1,75.54432000000001,0)"><svg viewBox="0 0 244.43135999999996 206.82559004238277" height="206.82559004238277" width="244.43135999999996"><g><svg xmlns="http://www.w3.org/2000/svg" xmlns:xlink="http://www.w3.org/1999/xlink" version="1.1" x="0" y="0" viewBox="0 13.42199993133545 100 84.61499786376953" enable-background="new 0 0 100 100" xml:space="preserve" height="206.82559004238277" width="244.43135999999996" class="icon-icon-0" data-fill-palette-color="accent" id="icon-0"><g fill="#ff4993" data-fill-palette-color="accent"><path d="M0 13.422v84.615h100V13.422H0zM92.308 90.346H7.692V28.807h84.615V90.346z" fill="#ffffff" data-fill-palette-color="accent"></path><rect x="42.002" y="66.065" width="26.488" height="7.775" fill="#ffffff" data-fill-palette-color="accent"></rect><polygon points="15.521,66.064 41.988,55.549 41.988,55.527 42.002,55.533 42.002,47.181 41.988,47.187 41.988,47.165    15.521,36.65 15.515,45.014 31.487,51.357 15.515,57.701  " fill="#ffffff" data-fill-palette-color="accent"></polygon></g></svg></g></svg></g><g></g></svg></g><defs></defs></svg><rect width="192.80607970401365" height="247.2" fill="none" stroke="none" visibility="hidden"></rect></g></svg></g></svg>